<svg xmlns="http://www.w3.org/2000/svg" viewBox="0 0 70 70"><defs><style>.cls-1{fill:#fff;}</style></defs><g id="Fondo"><rect width="70" height="70"/></g><g id="Capa_7_copia" data-name="Capa 7 copia"><path class="cls-1" d="M0,32.4A9.92,9.92,0,0,1,.8,31a4,4,0,0,1,3.81-1.26V46A3.72,3.72,0,0,1,0,43.34Z"/><path class="cls-1" d="M70,43.34A3.66,3.66,0,0,1,67.32,46a13.25,13.25,0,0,1-1.94.13V29.82a3.71,3.71,0,0,1,4.44,2.25,2.11,2.11,0,0,0,.18.33Z"/><path class="cls-1" d="M13,49.64a65.73,65.73,0,0,0,0,7,8,8,0,0,0,7.72,6.9c1.54,0,3.1,0,4.64,0a1,1,0,0,0,.66-.41,3.54,3.54,0,0,1,3.23-1.9H40.75a3.46,3.46,0,0,1,3.58,3.42,3.42,3.42,0,0,1-3.44,3.57c-3.91,0-7.83,0-11.75,0a3.31,3.31,0,0,1-3.08-1.9.71.71,0,0,0-.75-.43c-1.61,0-3.23,0-4.85,0a10.45,10.45,0,0,1-9.78-8.49,18.54,18.54,0,0,1-.18-2.58c0-1.71,0-3.41,0-5.21H9.43A2.37,2.37,0,0,1,7,47.15V28.69a2.32,2.32,0,0,1,2.45-2.44H13.8a2.35,2.35,0,0,1,2.56,2.54c0,1.28,0,2.55,0,3.83V46.5c0,2.29-.76,3.07-3.05,3.12Z"/><path class="cls-1" d="M60.35,23.89H55.73a21,21,0,0,0-41.44,0H9.61a25.63,25.63,0,0,1,50.74,0Z"/><path class="cls-1" d="M63,37.92V47a2.39,2.39,0,0,1-2.59,2.59H56.19a2.37,2.37,0,0,1-2.55-2.51q0-9.19,0-18.38a2.33,2.33,0,0,1,2.57-2.47h4.37A2.33,2.33,0,0,1,63,28.7C63,31.77,63,34.85,63,37.92Z"/></g></svg>