<svg xmlns="http://www.w3.org/2000/svg" viewBox="0 0 70 70"><defs><style>.cls-1{fill:#fff;}</style></defs><g id="Fondo"><rect width="70" height="70"/></g><g id="Capa_9" data-name="Capa 9"><path class="cls-1" d="M70,32.68a3.11,3.11,0,0,1-.55.48c-.73.4-1.49-.12-1.5-1,0-2.19,0-4.38,0-6.57V4.44c0-1.73-.66-2.39-2.39-2.39H4.44c-1.73,0-2.39.66-2.39,2.39V31.37c0,.16,0,.32,0,.48,0,.58,0,1.11-.65,1.36s-1-.11-1.4-.53V3A4.77,4.77,0,0,1,1.61.75C2.05.46,2.54.25,3,0H67a4.77,4.77,0,0,1,2.26,1.61c.29.44.5.93.75,1.4Z" transform="translate(0 0)"/><path class="cls-1" d="M0,37.32a3.11,3.11,0,0,1,.55-.48c.73-.4,1.49.12,1.5,1,0,2.19,0,4.38,0,6.57V65.56c0,1.73.66,2.39,2.39,2.39H65.56c1.73,0,2.39-.66,2.39-2.39V38.63c0-.16,0-.32,0-.48,0-.58,0-1.11.65-1.36s1,.11,1.4.53V67a4.77,4.77,0,0,1-1.61,2.26c-.44.29-.93.5-1.4.75H3A4.77,4.77,0,0,1,.75,68.39C.46,68,.25,67.46,0,67Z" transform="translate(0 0)"/><path class="cls-1" d="M64.85,35A29.85,29.85,0,1,1,35,5.15,29.85,29.85,0,0,1,64.85,35ZM35,62.76A27.76,27.76,0,1,0,7.24,35,27.82,27.82,0,0,0,35,62.76Z" transform="translate(0 0)"/><path class="cls-1" d="M11.93,7.54A3.94,3.94,0,0,1,8,11.45a4,4,0,0,1-3.9-3.94A4,4,0,0,1,8.05,3.6,3.94,3.94,0,0,1,11.93,7.54ZM8,9.33A1.81,1.81,0,1,0,6.22,7.49,1.77,1.77,0,0,0,8,9.33Z" transform="translate(0 0)"/><path class="cls-1" d="M58.07,7.46a3.91,3.91,0,1,1,7.81.13,4,4,0,0,1-4,3.86A3.94,3.94,0,0,1,58.07,7.46ZM62,9.33a1.81,1.81,0,1,0-1.84-1.78A1.78,1.78,0,0,0,62,9.33Z" transform="translate(0 0)"/><path class="cls-1" d="M8.07,65.5a3.9,3.9,0,1,1,3.87-3.93A3.91,3.91,0,0,1,8.07,65.5Zm1.78-3.92A1.85,1.85,0,0,0,8,59.76a1.84,1.84,0,1,0,.05,3.68A1.83,1.83,0,0,0,9.85,61.58Z" transform="translate(0 0)"/><path class="cls-1" d="M62,65.5a3.9,3.9,0,1,1,0-7.8,3.9,3.9,0,1,1,0,7.8Zm1.84-3.86a1.82,1.82,0,1,0-3.64-.1,1.83,1.83,0,0,0,1.8,1.9A1.85,1.85,0,0,0,63.79,61.64Z" transform="translate(0 0)"/><path class="cls-1" d="M23.47,30.78c-1.67-1.8-3.35-3.59-5-5.42-.9-1-1.78-2-2.61-3.07a3.34,3.34,0,0,1,.26-4.69,27.43,27.43,0,0,1,5.36-4.42c2.39-1.51,4.83-.55,5.44,2.2a27.24,27.24,0,0,0,2.91,8.11c.09.15.19.29.24.37,0-1.45-.05-2.94,0-4.43.09-2.34.19-4.68.41-7a3.22,3.22,0,0,1,3.33-3.07,24.48,24.48,0,0,1,7.43.77A3.24,3.24,0,0,1,43.35,15,38.14,38.14,0,0,0,40,21.58a10.21,10.21,0,0,0-.52,2.18l.54-.59A57.82,57.82,0,0,1,47.56,16a3.4,3.4,0,0,1,4.95.26,27.71,27.71,0,0,1,4.32,5.27c1.51,2.37.51,4.72-2.23,5.45-2.16.57-4.29,1.3-6.41,2a8.15,8.15,0,0,0-2.1,1.21h.68a55.38,55.38,0,0,1,10.77.28,3.31,3.31,0,0,1,3.1,3.3,24.31,24.31,0,0,1-.79,7.64,3.27,3.27,0,0,1-4.91,2A34.2,34.2,0,0,0,48.47,40a10.93,10.93,0,0,0-2.22-.55l.54.5A57.93,57.93,0,0,1,54,47.52c1.39,1.8,1.29,3.4-.29,5a27.56,27.56,0,0,1-5.16,4.23c-2.43,1.54-4.85.58-5.47-2.21a26.71,26.71,0,0,0-3-8.22.59.59,0,0,0-.29-.27c0,.34,0,.68.05,1a54.27,54.27,0,0,1-.31,10.43,3.28,3.28,0,0,1-3.31,3.09,23,23,0,0,1-7.57-.78,3.24,3.24,0,0,1-2-4.87A37.36,37.36,0,0,0,30,48.46a11.26,11.26,0,0,0,.54-2.22l-.52.57A58.41,58.41,0,0,1,22.47,54a3.41,3.41,0,0,1-5-.26,27.64,27.64,0,0,1-4.32-5.27c-1.48-2.34-.5-4.79,2.22-5.39a27.36,27.36,0,0,0,8.1-2.91,1.14,1.14,0,0,0,.43-.4c-.51,0-1,.1-1.52.11a59.3,59.3,0,0,1-9.88-.35A3.32,3.32,0,0,1,9.36,36.2a24.52,24.52,0,0,1,.78-7.58,3.26,3.26,0,0,1,4.89-2A35.39,35.39,0,0,0,21.56,30c.7.25,1.42.44,2.13.66ZM44.15,35A9.15,9.15,0,1,0,35,44.15,9.27,9.27,0,0,0,44.15,35Zm.29-6.37a27.71,27.71,0,0,1,9.72-3.75c1.31-.29,1.64-1.12.92-2.26a24.12,24.12,0,0,0-3.86-4.74c-1.06-1-1.47-1.09-2.56-.12-2,1.78-4,3.62-5.9,5.47-.68.65-1.28,1.4-1.85,2ZM25.57,41.37l-1.21.73a30.08,30.08,0,0,1-8.57,3c-1.23.27-1.57,1.11-.92,2.17a24.14,24.14,0,0,0,4.25,5.14,1.23,1.23,0,0,0,1.78.15,55.48,55.48,0,0,0,8.19-7.86Zm3.06-15.81c-.2-.33-.47-.75-.72-1.19a29.84,29.84,0,0,1-3-8.5c-.3-1.36-1.12-1.67-2.31-.92a24.24,24.24,0,0,0-4.88,4c-.72.77-.83,1.32-.13,2.09,2,2.22,4,4.39,6.08,6.56.52.55,1.14,1,1.63,1.45ZM41.36,44.44a27.65,27.65,0,0,1,3.75,9.7c.3,1.32,1.12,1.66,2.26,1a24.52,24.52,0,0,0,4.89-4c.78-.83.88-1.35.12-2.19-2-2.26-4.14-4.47-6.24-6.68-.46-.49-1-.9-1.42-1.27ZM37.14,23.92c.11-.44.2-.81.3-1.18a29.19,29.19,0,0,1,4-8.47c.69-1.09.31-1.94-.94-2.22a23.81,23.81,0,0,0-6.57-.59c-.87,0-1.33.41-1.37,1.28-.15,2.9-.28,5.81-.37,8.72,0,.85.1,1.71.14,2.46ZM32.86,46.08l-.28,1.15a29.46,29.46,0,0,1-4,8.47c-.72,1.13-.34,2,1,2.26a24.46,24.46,0,0,0,6.5.58c.9,0,1.36-.39,1.4-1.31q.24-4.33.37-8.65c0-.88-.1-1.75-.14-2.5ZM23.92,32.87l-1.2-.31a29.92,29.92,0,0,1-8.46-4c-1.07-.68-1.91-.32-2.2.9a23.88,23.88,0,0,0-.6,6.69,1.21,1.21,0,0,0,1.16,1.28c3,.15,6,.27,9.06.37.78,0,1.57-.09,2.24-.13Zm22.16,4.26,1.21.31a29.88,29.88,0,0,1,8.47,4c1.06.67,1.9.3,2.18-.92a24.25,24.25,0,0,0,.6-6.63,1.23,1.23,0,0,0-1.24-1.34c-2.86-.15-5.72-.28-8.59-.37-.91,0-1.83.09-2.63.14Z" transform="translate(0 0)"/></g></svg>