<svg xmlns="http://www.w3.org/2000/svg" viewBox="0 0 70 70"><defs><style>.cls-1{fill:#fff;}</style></defs><g id="Fondo"><rect width="70" height="70"/></g><g id="Capa_10" data-name="Capa 10"><path class="cls-1" d="M63.81,35.08V65a4.8,4.8,0,0,1-5.05,5H11.51a4.8,4.8,0,0,1-5-5.06V5.05a4.8,4.8,0,0,1,5.05-5H58.77a4.79,4.79,0,0,1,5,5.06ZM9.68,35V64.6c0,1.7.46,2.15,2.17,2.15H58.43c1.71,0,2.17-.45,2.17-2.14V5.39c0-1.69-.46-2.14-2.17-2.14H11.26A1.51,1.51,0,0,0,9.7,4.72c0,.3,0,.6,0,.9Z" transform="translate(0 0)"/><path class="cls-1" d="M35.12,47.73a20.68,20.68,0,1,1,20.76-20.6A20.73,20.73,0,0,1,35.12,47.73ZM52.63,27.06a17.49,17.49,0,1,0-17.5,17.48A17.44,17.44,0,0,0,52.63,27.06Z" transform="translate(0 0)"/><path class="cls-1" d="M41.49,57.24V53c0-1.61.53-2.12,2.16-2.13.92,0,1.84,0,2.76,0A4.61,4.61,0,0,1,51,55.11a19.21,19.21,0,0,1-.08,4.67,4.58,4.58,0,0,1-4.55,3.83H43.33a1.6,1.6,0,0,1-1.83-1.76c0-1.54,0-3.07,0-4.61Zm3.24,3.16c.54,0,1.05,0,1.57,0a1.5,1.5,0,0,0,1.54-1.63c0-1,0-2,0-3a1.5,1.5,0,0,0-1.35-1.6,14.73,14.73,0,0,0-1.76,0Z" transform="translate(0 0)"/><path class="cls-1" d="M30.36,57.21c0-1.53,0-3.07,0-4.61a1.51,1.51,0,0,1,1.56-1.7A31.7,31.7,0,0,1,36,51a4.67,4.67,0,0,1,4,4.38c0,1.27,0,2.53,0,3.8a4.74,4.74,0,0,1-4.48,4.45c-1.14,0-2.28,0-3.43,0A1.53,1.53,0,0,1,30.37,62C30.35,60.39,30.36,58.8,30.36,57.21Zm3.25,3.17c.61,0,1.13,0,1.65,0a1.39,1.39,0,0,0,1.41-1.43c0-1.13,0-2.27,0-3.41a1.43,1.43,0,0,0-1.36-1.42,13.71,13.71,0,0,0-1.7,0Z" transform="translate(0 0)"/><path class="cls-1" d="M25.59,58.87H22.43c0,1,0,1.9,0,2.84,0,1.18-.63,1.9-1.63,1.9s-1.62-.72-1.62-1.91V52.76c0-1.15.67-1.89,1.66-1.87a1.66,1.66,0,0,1,1.59,1.87c0,.87,0,1.74,0,2.61,0,.05,0,.09,0,.2h3.1c0-1,0-1.9,0-2.86s.57-1.79,1.53-1.82a1.59,1.59,0,0,1,1.66,1.78c0,3,0,6.11,0,9.16,0,1.16-.64,1.8-1.64,1.78s-1.55-.7-1.55-1.86C25.58,60.81,25.59,59.87,25.59,58.87Z" transform="translate(0 0)"/><path class="cls-1" d="M55.85,9.57A1.59,1.59,0,1,1,57.44,8,1.56,1.56,0,0,1,55.85,9.57Z" transform="translate(0 0)"/><path class="cls-1" d="M14.47,60.43A1.59,1.59,0,1,1,12.84,62,1.57,1.57,0,0,1,14.47,60.43Z" transform="translate(0 0)"/><path class="cls-1" d="M14.46,6.39A1.58,1.58,0,0,1,16,8a1.6,1.6,0,1,1-1.57-1.64Z" transform="translate(0 0)"/><path class="cls-1" d="M55.83,63.61A1.57,1.57,0,0,1,54.26,62a1.56,1.56,0,0,1,1.57-1.55,1.59,1.59,0,1,1,0,3.18Z" transform="translate(0 0)"/><path class="cls-1" d="M35.18,20.7A6.36,6.36,0,1,1,28.74,27,6.38,6.38,0,0,1,35.18,20.7Zm3.11,6.37A3.15,3.15,0,0,0,32,27a3.15,3.15,0,1,0,6.3.07Z" transform="translate(0 0)"/></g></svg>