<svg xmlns="http://www.w3.org/2000/svg" viewBox="0 0 70 70.02"><defs><style>.cls-1{fill:#fff;}</style></defs><g id="Fondo"><rect y="0.02" width="70" height="70"/></g><g id="Capa_12" data-name="Capa 12"><path class="cls-1" d="M44.1,64.73H26.26v3.76c0,1.09-.42,1.5-1.51,1.51H20.61c-1.12,0-1.53-.43-1.53-1.57s0-2.44,0-3.68a3.82,3.82,0,0,1-3.63-2.93,3.74,3.74,0,0,1-.11-1q0-28.47,0-56.94A3.71,3.71,0,0,1,19.21,0c10.46,0,20.93,0,31.4,0a4,4,0,0,1,4.13,4.14c-.06,17.47,0,34.93,0,52.4v4.14a3.74,3.74,0,0,1-3,4l-.43.11c0,1.22,0,2.44,0,3.66S50.78,70,49.63,70h-3.9c-1.2,0-1.63-.44-1.63-1.66S44.1,66,44.1,64.73ZM17.83,32.26v28c0,1.51.38,1.89,1.89,1.89H50.26c1.59,0,1.94-.35,1.94-1.91q0-27.91,0-55.83c0-1.58-.36-1.94-1.92-1.94H19.81c-1.63,0-2,.34-2,2Zm3.89,35.19h2V64.74h-2Zm26.9,0V64.74H46.74v2.74Z" transform="translate(0 0.02)"/><path class="cls-1" d="M35,6.73H47.26c1.22,0,1.65.42,1.65,1.62,0,2.42,0,4.84,0,7.26,0,1.1-.46,1.57-1.56,1.57H22.68c-1.11,0-1.57-.46-1.57-1.56,0-2.44,0-4.89,0-7.33,0-1.12.44-1.56,1.56-1.56ZM23.65,14.57H46.34V9.3H23.65Z" transform="translate(0 0.02)"/><path class="cls-1" d="M34.93,31.25H22.74c-1.23,0-1.63-.4-1.63-1.62V22.52c0-1.2.39-1.65,1.56-1.65q12.35,0,24.68,0c1.13,0,1.56.46,1.56,1.57,0,2.42,0,4.85,0,7.27,0,1.11-.44,1.54-1.56,1.54Zm11.43-7.76H23.66V28.7h22.7Z" transform="translate(0 0.02)"/><path class="cls-1" d="M35.05,49.42a5.65,5.65,0,0,1-5.23-3.28,5.4,5.4,0,0,1,.62-5.94,2.35,2.35,0,0,1,.36-.41,1.26,1.26,0,1,1,1.87,1.68,3.13,3.13,0,0,0-.83,2.79,3.22,3.22,0,0,0,6,1,3,3,0,0,0-.36-3.62c-.66-.79-.69-1.45-.1-2s1.39-.44,2,.34a5.4,5.4,0,0,1,.87,6A5.6,5.6,0,0,1,35.05,49.42Z" transform="translate(0 0.02)"/><path class="cls-1" d="M43,55.94H38.43c-.9,0-1.45-.5-1.45-1.26s.56-1.24,1.47-1.24h9c.93,0,1.47.45,1.49,1.22s-.54,1.27-1.51,1.28Z" transform="translate(0 0.02)"/><path class="cls-1" d="M43,57h4.52c.9,0,1.45.5,1.44,1.27a1.26,1.26,0,0,1-1.41,1.23H38.38A1.25,1.25,0,0,1,37,58.3c0-.76.55-1.26,1.45-1.26Z" transform="translate(0 0.02)"/><path class="cls-1" d="M36.26,39.82c0,.88,0,1.76,0,2.65a1.24,1.24,0,1,1-2.48,0c0-1.74,0-3.48,0-5.22a1.25,1.25,0,1,1,2.5,0C36.27,38.11,36.26,39,36.26,39.82Z" transform="translate(0 0.02)"/></g></svg>