<svg id="Capa_3" data-name="Capa 3" xmlns="http://www.w3.org/2000/svg" viewBox="0 0 70 70"><defs><style>.cls-1{fill:#fff;}</style></defs><rect width="70" height="70"/><path class="cls-1" d="M70,18.32V51.68c-1.06,2.51-2,3.13-4.79,3.13h-1.4v.83c0,1.78,0,3.55,0,5.33a3,3,0,0,1-3.15,3.14c-.7,0-1.41,0-2.12,0a3,3,0,0,1-3.33-3.34c0-1.73,0-3.46,0-5.2v-.72H51.55c0,2.08,0,4.1,0,6.12a3,3,0,0,1-3.13,3.14c-.77,0-1.55,0-2.32,0A3,3,0,0,1,43,61c0-1.55,0-3.1,0-4.65V54.84H39.31v.77c0,1.77,0,3.55,0,5.33a3,3,0,0,1-3.24,3.17H34A3,3,0,0,1,30.7,60.8c0-1.09,0-2.19,0-3.28V54.85H27.06c0,2.12,0,4.19,0,6.26a3,3,0,0,1-2.93,3c-.91,0-1.83,0-2.74,0a3,3,0,0,1-2.92-3c0-1.84,0-3.69,0-5.53v-.73H14.8v.79c0,1.8,0,3.6,0,5.4a3,3,0,0,1-3.12,3.07c-.73,0-1.46,0-2.19,0A3,3,0,0,1,6.2,60.83c0-1.75,0-3.5,0-5.26V54.8c-.82,0-1.55,0-2.28,0A3.74,3.74,0,0,1,.84,53.29,12.25,12.25,0,0,1,0,51.68V18.32c1.08-2.52,2-3.13,4.8-3.13H6.19v-.83c0-1.76,0-3.51,0-5.26A3,3,0,0,1,9.42,5.89h2.05A3,3,0,0,1,14.8,9.23c0,1.73,0,3.46,0,5.19v.72h3.66c0-2.09,0-4.14,0-6.19a3,3,0,0,1,3.06-3.06h2.39A3,3,0,0,1,27.06,9c0,1.8,0,3.6,0,5.4v.73H30.7v-.77c0-1.78,0-3.55,0-5.33A3,3,0,0,1,34,5.89h2.11A3,3,0,0,1,39.3,9.06c0,1.12,0,2.23,0,3.35v2.73h3.63c0-2.09,0-4.14,0-6.18a3,3,0,0,1,3-3.07q1.34,0,2.67,0a3,3,0,0,1,2.92,3c0,1.84,0,3.69,0,5.53v.72h3.66v-.79c0-1.8,0-3.6,0-5.39a3,3,0,0,1,3.12-3.07h2.19a3,3,0,0,1,3.28,3.27c0,1.76,0,3.51,0,5.27v.76c.83,0,1.56,0,2.29,0a3.73,3.73,0,0,1,3.07,1.5A11.22,11.22,0,0,1,70,18.32Zm-35-1.1H5.77c-.62,0-1.23,0-1.85,0A1.82,1.82,0,0,0,2,19.14Q2,35,2,50.86a1.82,1.82,0,0,0,1.81,1.91H66.06a1.83,1.83,0,0,0,1.91-2Q68,35,68,19.17a1.85,1.85,0,0,0-1.92-2H35Zm-2.28-2.08h4.53c0-2.13,0-4.22,0-6.31a.88.88,0,0,0-1-.9q-1.26,0-2.52,0a.89.89,0,0,0-1,.9C32.72,10.92,32.74,13,32.74,15.14Zm0,39.69c0,2.16,0,4.24,0,6.33,0,.61.44.91,1,.91H36c1,0,1.28-.3,1.29-1.31,0-1.38,0-2.77,0-4.16V54.83ZM49.51,15.16c0-2.15,0-4.21,0-6.28a.9.9,0,0,0-1-1c-.77,0-1.54,0-2.32,0S45,8.27,45,9.12c0,1.71,0,3.41,0,5.12v.92ZM25,15.16c0-2.14,0-4.23,0-6.31,0-.62-.43-.92-1-.93-.8,0-1.6,0-2.39,0A1,1,0,0,0,20.5,9c0,1.05,0,2.09,0,3.14v3ZM45,54.83C45,57,45,59,45,61.1a.91.91,0,0,0,1,1c.77,0,1.54,0,2.32,0s1.19-.33,1.19-1.19c0-1.57,0-3.13,0-4.7V54.83Zm-24.48,0c0,2.17,0,4.25,0,6.34a.89.89,0,0,0,1,.9c.77,0,1.54,0,2.31,0S25,61.73,25,60.88V55.29a3.87,3.87,0,0,0-.06-.46Zm36.74-39.7h4.55c0-2.08,0-4.1,0-6.12,0-.73-.39-1.07-1.11-1.09s-1.59,0-2.39,0a.92.92,0,0,0-1,1c0,.72,0,1.45,0,2.18Zm0,39.7c0,2.17,0,4.28,0,6.39,0,.6.45.85,1,.85h2.26c.88,0,1.23-.34,1.24-1.23,0-1.14,0-2.28,0-3.41v-2.6ZM12.75,15.17c0-2.17,0-4.28,0-6.39,0-.61-.46-.85-1-.86H9.46c-.88,0-1.23.35-1.24,1.24,0,1.23,0,2.46,0,3.69v2.32Zm0,39.69H8.22c0,2.08,0,4.1,0,6.13a1,1,0,0,0,1.12,1.08c.8,0,1.59,0,2.39,0a.92.92,0,0,0,1-1c0-.73,0-1.46,0-2.18Z"/><path class="cls-1" d="M35,46H11.85a2.79,2.79,0,0,1-3-2.14,2.56,2.56,0,0,1-.08-.67V37.54c0-.79.4-1.28,1-1.28s1,.5,1,1.29c0,1.8,0,3.6,0,5.4,0,.83.21,1,1,1.06h46c1.29,0,1.38-.1,1.38-1.41,0-1.68,0-3.37,0-5.06,0-.79.39-1.28,1-1.29s1,.48,1,1.27V43a2.77,2.77,0,0,1-3.06,3H35Z"/><path class="cls-1" d="M35.06,24h23.1a2.8,2.8,0,0,1,3,2.21,6.82,6.82,0,0,1,.06,1.36V32c0,.75-.38,1.22-1,1.24s-1.05-.47-1.05-1.24c0-1.62,0-3.24,0-4.85,0-.93-.19-1.13-1.1-1.13h-46c-1.2,0-1.32.12-1.32,1.33,0,1.53,0,3.05,0,4.58,0,.85-.38,1.33-1,1.31s-1-.47-1-1.28V27A2.79,2.79,0,0,1,11.82,24H35.06Z"/><path class="cls-1" d="M42.7,34.29c-.27,1.61-.56,3.21-.8,4.83-.08.57-.36.66-.87.68s-.72-.24-.79-.7c-.29-1.7-.58-3.4-1-5.09,0,1.67,0,3.34,0,5,0,.54-.13.78-.72.77s-.68-.25-.68-.75q0-3.85,0-7.72c0-.52.14-.71.7-.71,1.56,0,1.55,0,1.79,1.57a37.32,37.32,0,0,0,.78,4c.28-1.64.6-3.27.84-4.91.08-.54.29-.68.8-.66,1.67.05,1.5-.26,1.5,1.47,0,2.32,0,4.65,0,7,0,.52-.17.73-.71.73s-.74-.19-.73-.72c0-1.37,0-2.73,0-4.1v-.68Z"/><path class="cls-1" d="M26.92,35.59c0,1.08,0,2.16,0,3.25,0,.81-.14.94-1,.94s-.93-.13-.93-1V31.58c0-.89.07-1,1-.95a20.88,20.88,0,0,1,2.24.13,1.8,1.8,0,0,1,1.63,1.52c.16,1,.26,2-.68,2.76A.7.7,0,0,0,29,36c.32.9.58,1.81.88,2.72.13.41.26.82-.27,1a1,1,0,0,1-1.49-.61c-.27-1-.51-2.06-.77-3.1a4.52,4.52,0,0,0-.18-.47Zm0-1.21c.9,0,1.2-.35,1.16-1.3s-.28-1.14-1.16-1Z"/><path class="cls-1" d="M35.45,39.78c-.51.08-.85-.13-.88-.76,0-.22-.1-.44-.12-.67,0-.5-.36-.53-.76-.52s-.62.07-.61.51a2.63,2.63,0,0,1-.1.47c-.18.92-.62,1.22-1.5.93a.78.78,0,0,1-.37-.65c.54-2.64,1.14-5.27,1.7-7.92.15-.73.67-.5,1.11-.55a.64.64,0,0,1,.81.6c.53,2.53,1.09,5.06,1.63,7.59C36.54,39.67,36.43,39.78,35.45,39.78Zm-1.24-3.17L33.82,34h-.14l-.35,2.59Z"/></svg>