<svg xmlns="http://www.w3.org/2000/svg" viewBox="0 0 70 70"><defs><style>.cls-1{fill:#fff;}</style></defs><g id="Fondo"><rect width="70" height="70"/></g><g id="Capa6"><path class="cls-1" d="M51.78,28.75a17.56,17.56,0,0,0-14-14.37c-.55-.1-.65-.31-.63-.79,0-.92,0-1.83,0-2.75A1.06,1.06,0,0,0,36.1,9.66l-.61,0a6.32,6.32,0,0,1,4.77-6.83c3-.65,6.14-.25,9.21-.22a1.35,1.35,0,0,1,.28,0c0-.7,0-1.4-.08-2.09a5.79,5.79,0,0,0-.72,0c-2.34,0-4.68,0-7,0a8.53,8.53,0,0,0-8.35,6.75c-.16.76-.19,1.56-.28,2.37a1.28,1.28,0,0,1-.27.05c-1.21.11-1.38.3-1.38,1.53,0,.85,0,1.69,0,2.53,0,.41-.12.56-.54.67a22.54,22.54,0,0,0-3.84,1.2C20.83,18.66,17.1,23.77,16.85,31s-.06,14.15,0,21.23a13.31,13.31,0,0,0,.28,2.43,17.64,17.64,0,0,0,35-3.2q0-9.67,0-19.36A21.5,21.5,0,0,0,51.78,28.75ZM35.45,16.19a12,12,0,0,1,4.14.8,15.15,15.15,0,0,1,6.87,4.84,1.55,1.55,0,0,1,.28,1c-.32,2.88-.67,5.77-1,8.65a2.37,2.37,0,0,1-2.26,2.16c-2.64.07-5.28,0-8,0,0-1.5,0-2.92,0-4.34a1,1,0,0,1,.37-.6,2.93,2.93,0,0,0,1.35-2.56v-3.1a2.87,2.87,0,0,0-1.35-2.55.9.9,0,0,1-.37-.6C35.43,18.72,35.45,17.49,35.45,16.19Zm-1.68-4.42h1.31V14H33.77Zm-.06,12.84V23c0-.47.28-.78.7-.7s.66.41.67.65a26.48,26.48,0,0,1,0,3.45,1,1,0,0,1-.72.68c-.45.07-.65-.32-.65-.76ZM23.17,20.89a15.71,15.71,0,0,1,9.08-4.64c.34-.06.7-.05,1.14-.08,0,1.36,0,2.63,0,3.9,0,.16-.21.36-.37.46a2.74,2.74,0,0,0-1.34,2.41v3.39A2.76,2.76,0,0,0,33,28.75a.77.77,0,0,1,.38.52c0,1.44,0,2.89,0,4.42-2.74,0-5.39.05-8,0a2.23,2.23,0,0,1-2.21-2.09c-.37-2.62-.58-5.26-1-7.86A3,3,0,0,1,23.17,20.89ZM50,51.05a15.59,15.59,0,0,1-30.89,3.24,19.36,19.36,0,0,1-.28-3.22q0-9.94,0-19.87a12.43,12.43,0,0,1,1.43-5.76c.29,2.24.52,4.49.89,6.72a4.32,4.32,0,0,0,4.29,3.57q9,0,17.92,0a4.44,4.44,0,0,0,4.37-3.92l.78-6.22s0,0,.12-.12a4.3,4.3,0,0,1,.27.52A15.75,15.75,0,0,1,50,32Q50,41.51,50,51.05Z"/><path class="cls-1" d="M41.94,63.19c-.3-.29-.75-.52-.79-.82a1.62,1.62,0,0,1,.37-1.19c.61-.67,1.41-1.18,2-1.87a24.31,24.31,0,0,0,1.83-2.75c.42-.69,1-1,1.52-.65s.66.87.33,1.56a13.88,13.88,0,0,1-4.3,5.22A7,7,0,0,1,41.94,63.19Z"/></g></svg>