<svg xmlns="http://www.w3.org/2000/svg" viewBox="0 0 70 70"><defs><style>.cls-1{fill:#fff;}</style></defs><g id="Fondo"><rect width="70" height="70"/></g><g id="Capa_11" data-name="Capa 11"><path class="cls-1" d="M70,51.54a10.28,10.28,0,0,1-.87,1.6,3.51,3.51,0,0,1-2.9,1.4h-6.7c-.76,0-1.26-.43-1.25-1s.48-1,1.22-1h6.22c1.6,0,2.23-.64,2.23-2.24V5.67c0-1.6-.63-2.24-2.23-2.24H4.28c-1.6,0-2.23.63-2.23,2.24v44.5c0,1.7.61,2.31,2.3,2.31H53.83c.25,0,.51,0,.75,0a1,1,0,0,1,1,1,1.06,1.06,0,0,1-1,1c-.36,0-.72,0-1.09,0H45.25c.06.21.09.38.15.53.84,2.16,1.69,4.32,2.51,6.48a.73.73,0,0,0,.84.57c.85,0,1.69,0,2.53,0s1.34.39,1.34,1.32q0,1.95,0,3.9c0,.91-.38,1.29-1.28,1.29H18.66c-.9,0-1.28-.38-1.28-1.29,0-1.3,0-2.59,0-3.89,0-.94.38-1.31,1.33-1.33s1.78,0,2.67,0a.79.79,0,0,0,.59-.3c1-2.38,1.87-4.77,2.84-7.26h-.87c-6.41,0-12.81-.06-19.21,0-2.34,0-4-.76-4.73-3V4.37c.09-.2.18-.41.26-.61A3.76,3.76,0,0,1,3.77,1.37H66.23a3.76,3.76,0,0,1,3.51,2.39c.08.21.17.41.26.61ZM45.83,62.12a1.79,1.79,0,0,0-.08-.37c-.88-2.27-1.78-4.52-2.63-6.8-.16-.41-.41-.41-.74-.41H27.62a.69.69,0,0,0-.79.54c-.82,2.14-1.66,4.28-2.49,6.42-.07.17-.1.36-.17.59l.69,0c.23,0,.46,0,.69,0a1,1,0,1,1,0,2.09c-.79,0-1.59,0-2.39,0H19.52v2.29h31V64.24H31a3.74,3.74,0,0,1-.75,0,1,1,0,0,1-.92-1.08,1,1,0,0,1,.95-1,5.1,5.1,0,0,1,.68,0H45.83Z"/><path class="cls-1" d="M6.53,7.88v36H63.45v-36H15.32a6.55,6.55,0,0,1-.89,0,1,1,0,0,1-.83-1,.94.94,0,0,1,.72-1,3.15,3.15,0,0,1,.81-.09H63c1.8,0,2.63.83,2.63,2.63v35c0,1.78-.8,2.58-2.59,2.58H7c-1.79,0-2.59-.8-2.59-2.58v-35c0-1.8.83-2.63,2.63-2.63h2.6c.76,0,1.26.44,1.27,1.06s-.48,1-1.26,1C8.61,7.89,7.59,7.88,6.53,7.88Z"/><path class="cls-1" d="M35,41.56H10.4c-1.32,0-1.58-.27-1.59-1.61,0-1.16,0-2.32,0-3.49s.34-1.41,1.38-1.41H59.81c1,0,1.36.35,1.37,1.36,0,1.27,0,2.55,0,3.82,0,1-.37,1.33-1.38,1.33Zm-24.07-2.1H59V37.21H10.92v2.25Z"/><path class="cls-1" d="M16,18.2c-.51-.84-.93-1.57-1.38-2.27a1.12,1.12,0,0,1,.18-1.59c.6-.59,1.2-1.19,1.79-1.79a1.12,1.12,0,0,1,1.54-.17l2.29,1.39c.22-.91.45-1.73.63-2.56a1.11,1.11,0,0,1,1.24-1c.82,0,1.64,0,2.46,0s1.12.24,1.33,1.08.37,1.58.59,2.5l1.68-1c1.43-.89,1.48-.88,2.66.29.42.42.84.83,1.25,1.26a1.13,1.13,0,0,1,.2,1.64c-.43.72-.87,1.43-1.37,2.25l2.3.54c1.09.26,1.29.52,1.3,1.65,0,.66,0,1.32,0,2,0,1-.23,1.28-1.2,1.52l-2.39.56c.46.74.85,1.4,1.25,2.05.57.93.53,1.24-.25,2-.5.5-1,1-1.5,1.5a1.13,1.13,0,0,1-1.69.2l-2.23-1.36-.57,2.41c-.22.94-.5,1.17-1.46,1.18H22.24a1.11,1.11,0,0,1-1.2-1c-.17-.82-.39-1.63-.62-2.56-.36.21-.69.38-1,.57s-.9.54-1.34.82a1.09,1.09,0,0,1-1.48-.19c-.61-.61-1.22-1.23-1.84-1.83a1.1,1.1,0,0,1-.17-1.54c.46-.72.9-1.46,1.4-2.29l-2.32-.55c-1.05-.25-1.24-.48-1.24-1.54,0-.8,0-1.59,0-2.39a1,1,0,0,1,.89-1.11ZM29.5,14.5l-1.87,1.14a2.12,2.12,0,0,1-3-1.23c-.17-.7-.33-1.4-.5-2.12a3.48,3.48,0,0,1-.46,0c-.57-.08-.9.08-1,.71a11.85,11.85,0,0,1-.32,1.46,2.15,2.15,0,0,1-2.91,1.22c-.64-.38-1.27-.78-1.9-1.17l-.9.84c.41.66.79,1.27,1.16,1.9a2.12,2.12,0,0,1-1.2,2.95c-.7.18-1.4.33-2.13.5V22c.74.17,1.44.32,2.14.5a2.14,2.14,0,0,1,1.22,2.91c-.38.64-.78,1.27-1.19,1.94l.88.85c.66-.4,1.28-.82,1.94-1.18a1.45,1.45,0,0,1,.95-.22c1.05.28,2.05.68,2.08,2a3.26,3.26,0,0,0,.14.6c.23,1,.23,1,1.28,1a1.08,1.08,0,0,0,.2-.06c.17-.73.33-1.46.53-2.18a2.16,2.16,0,0,1,2.82-1.17c.66.39,1.31.8,1.91,1.17l.93-.83-1.12-1.82a2.1,2.1,0,0,1,1.31-3l2-.47V20.69l-2-.47a2.11,2.11,0,0,1-1.27-3l1.15-1.88Z"/><path class="cls-1" d="M48.58,20.93h9.11c.27,0,.62,0,.78.11a1.9,1.9,0,0,1,.66,1,.88.88,0,0,1-.82.94,4.65,4.65,0,0,1-.75,0H48.63c-.41,1.86-1.06,2.38-2.94,2.38h-.82c-2.12,0-2.59-.34-3.21-2.38-.95,0-1.93,0-2.89,0a1.68,1.68,0,0,1-1.1-.52c-.52-.67.06-1.53,1-1.55s2,0,3,0a7.39,7.39,0,0,1,.45-1.26A2.08,2.08,0,0,1,44,18.6c.71,0,1.42,0,2.12,0A2.27,2.27,0,0,1,48.58,20.93Zm-2.14,2.32V20.72H43.93v2.53Z"/><path class="cls-1" d="M46.59,12.58a2.28,2.28,0,0,1,2.51-2.37c.53,0,1,0,1.58,0,1.79,0,2.44.54,2.81,2.37H58.1c.53,0,.95.26,1,.76a1.88,1.88,0,0,1-.42,1.1c-.12.16-.5.18-.76.18H53.53a8.5,8.5,0,0,1-.35,1.11A2,2,0,0,1,51.35,17c-.73,0-1.46,0-2.19,0a2.29,2.29,0,0,1-2.58-2.35h-7.9a1.05,1.05,0,0,1-1.19-1c0-.6.47-1,1.2-1Zm2.16-.25v2.54h2.52V12.33Z"/><path class="cls-1" d="M49.36,27.85a9.08,9.08,0,0,1,1-1.67c.79-.77,4.26-.8,5.06,0a8.5,8.5,0,0,1,1.09,1.7L56.4,28c.54,0,1.08,0,1.63,0a1,1,0,1,1,0,2c-.54,0-1.09,0-1.62,0-.41,1.87-1,2.37-2.92,2.37-.55,0-1.1,0-1.64,0a2.18,2.18,0,0,1-2.28-2c0-.11-.06-.21-.09-.36H38.83c-.85,0-1.33-.37-1.34-1s.48-1,1.32-1H49.46Zm2.32,2.45h2.55V27.8H51.68Z"/><path class="cls-1" d="M27.47,21.33a3.93,3.93,0,1,1-3.91-3.94A4,4,0,0,1,27.47,21.33Zm-5.75-.06a1.76,1.76,0,0,0,1.74,1.86,1.81,1.81,0,1,0-1.74-1.86Z"/></g></svg>