<svg xmlns="http://www.w3.org/2000/svg" viewBox="0 0 70 70"><defs><style>.cls-1{fill:#fff;}</style></defs><g id="Fondo"><rect width="70" height="70"/></g><g id="Capa_7" data-name="Capa 7"><path class="cls-1" d="M70,45.3a17.11,17.11,0,0,1-1.22,2.84,6.8,6.8,0,0,1-6,3.12c-1,0-2.09,0-3.24,0V52c0,2,0,3.91,0,5.87,0,1.1-.37,1.47-1.47,1.47H49.31c-1.06,0-1.43-.38-1.44-1.43V51.31H43.24v6.61c0,1-.41,1.46-1.43,1.46h-25c-1.24,0-1.57-.34-1.57-1.58,0-1.91,0-3.82,0-5.73v-.77H9.45v5.13c0,.53,0,1.05,0,1.57,0,.89-.44,1.37-1.18,1.37S7.1,58.87,7.09,58V54.32c0-.22,0-.44,0-.73H4c-1.1,0-1.51-.42-1.51-1.53,0-2.89,0-5.77,0-8.66,0-1.12.39-1.51,1.52-1.51H7V39.57c-1.15,0-2.31,0-3.46,0a1.08,1.08,0,0,1-1.11-1,1.15,1.15,0,0,1,.79-1.28,2.51,2.51,0,0,1,.61,0H7V34.92H3.85c-1,0-1.4-.41-1.4-1.41,0-2.93,0-5.87,0-8.8,0-1,.39-1.44,1.44-1.45s2.09,0,3.16,0V21H4.57c-.3,0-.59,0-.89,0a1.19,1.19,0,1,1,0-2.38c.79,0,1.59,0,2.39,0h1V12.81H5.63c-1.43,0-2.86,0-4.29,0A1.14,1.14,0,0,1,.13,11.61a1.09,1.09,0,0,1,1.18-1.14c2.32,0,4.64,0,7,0,.79,0,1.21.55,1.2,1.41,0,1.43,0,2.85,0,4.39h53.1a7.08,7.08,0,0,1,7.08,4.82c.13.38.23.77.35,1.16ZM9.54,48.87h.82l11.6,0c13.58,0,27.16,0,40.74,0a4.85,4.85,0,0,0,5-5q0-10.14,0-20.27a4.82,4.82,0,0,0-5-5q-26.23.06-52.47,0H9.54Zm31.28,2.47H17.64V57h3.42c0-.7,0-1.36,0-2a1.53,1.53,0,0,1,.33-1,1.84,1.84,0,0,1,1.2-.35c.59.07.83.59.84,1.16,0,.74,0,1.48,0,2.21h2.29c0-.74,0-1.44,0-2.14a1.19,1.19,0,1,1,2.35,0c0,.7,0,1.4,0,2.1H30.4c0-.73,0-1.43,0-2.13a1.2,1.2,0,0,1,1.15-1.33c.7,0,1.17.54,1.18,1.37V57h2.32V54.82a1.17,1.17,0,1,1,2.33,0c0,.72,0,1.44,0,2.17h3.43Zm14,5.66h2.27V51.35H50.24V57h2.29V54.85a1.17,1.17,0,1,1,2.33,0C54.87,55.56,54.86,56.26,54.86,57Zm-50-31.35v6.9H7v-6.9Zm0,18.63v6.88H7V44.28Z"/><path class="cls-1" d="M52.49,46.59A12.84,12.84,0,1,1,65.35,34.07,12.85,12.85,0,0,1,52.49,46.59Zm-9.76-9.17c.17-.34.28-.56.4-.77a7.38,7.38,0,0,1,4.14-3.74c.8-.25.91-.76,1.06-1.37-1.94-1-4.68-.1-6,1a.88.88,0,0,0-.22.54A10.11,10.11,0,0,0,42.73,37.42Zm14-1.45c1.84,1,4.67.13,6-1a.61.61,0,0,0,.16-.28c.23-.82-.08-3.88-.66-4.47-.11.23-.22.45-.34.67A7.45,7.45,0,0,1,58,34.52,1.6,1.6,0,0,0,56.73,36Zm-.58,7.59-.74-.42a7.4,7.4,0,0,1-3.67-4A1.59,1.59,0,0,0,50.34,38s-.09.08-.11.14a6.42,6.42,0,0,0,1.1,5.9.83.83,0,0,0,.48.2A10.36,10.36,0,0,0,56.15,43.56Zm.93-11.2c.15-.06.28-.09.4-.15a6.29,6.29,0,0,0,3.1-4.64.82.82,0,0,0-.14-.63A9.93,9.93,0,0,0,57,24.29c0,.06,0,.08,0,.1,0,.19.11.38.17.58a7.44,7.44,0,0,1-.18,5.51A1.57,1.57,0,0,0,57.08,32.36Zm-5.95-3.15a6.23,6.23,0,0,0-4.94-3.55.55.55,0,0,0-.38.1,10,10,0,0,0-2.76,3.62l.81-.23a7.39,7.39,0,0,1,5.32.18A1.59,1.59,0,0,0,51.13,29.21Zm-3.14,6a1.5,1.5,0,0,0-.32.09A6.23,6.23,0,0,0,44.48,40a.79.79,0,0,0,.12.57,9.68,9.68,0,0,0,3.58,2.69c-.1-.3-.17-.52-.23-.73a7.43,7.43,0,0,1,.18-5.45A1.55,1.55,0,0,0,48,35.17Zm1-11.26c0,.08,0,.11.05.12l.53.3a7.46,7.46,0,0,1,3.72,4,1.59,1.59,0,0,0,1.43,1.24c.9-1.6.27-4.53-1-6.05a.73.73,0,0,0-.48-.18A10.2,10.2,0,0,0,49,23.91Zm4.9,14.42a6.17,6.17,0,0,0,3.74,3.25A1.88,1.88,0,0,0,60.13,41,12.83,12.83,0,0,0,62,38.14l-.85.24a7.31,7.31,0,0,1-5.25-.18A1.6,1.6,0,0,0,53.91,38.33ZM52.53,36a2.27,2.27,0,1,0-2.32-2.25A2.28,2.28,0,0,0,52.53,36Z"/><path class="cls-1" d="M24.65,20.92a12.83,12.83,0,1,1-12.9,12.56A12.87,12.87,0,0,1,24.65,20.92Zm4.12,15c1.83,1,4.72.14,6-1a.64.64,0,0,0,.19-.34,10,10,0,0,0-.62-4.5c-.18.34-.29.55-.41.76a7.35,7.35,0,0,1-4,3.66A1.66,1.66,0,0,0,28.77,36Zm-.68,7.65c0-.09,0-.12-.06-.13l-.59-.33a7.35,7.35,0,0,1-3.65-4A1.61,1.61,0,0,0,22.4,38s-.08,0-.1.09c-.83,1.82-.12,4.48,1.09,6a.7.7,0,0,0,.47.2A10.21,10.21,0,0,0,28.09,43.6Zm-8-.39a.45.45,0,0,0,.05-.09L20,42.47A7.46,7.46,0,0,1,20.2,37a1.61,1.61,0,0,0-.15-1.87,2.34,2.34,0,0,0-.48.18A6.37,6.37,0,0,0,16.51,40a.78.78,0,0,0,.14.56A10,10,0,0,0,20.12,43.21Zm-5-13.95c.06,0,.09.07.1.06l.65-.17a7.43,7.43,0,0,1,5.39.2,1.57,1.57,0,0,0,1.88-.13s0,0,0-.07a6.37,6.37,0,0,0-5-3.5.6.6,0,0,0-.37.11A9.93,9.93,0,0,0,15.15,29.26Zm11.66.28a6.25,6.25,0,0,0-1-6,.78.78,0,0,0-.33-.21,8.85,8.85,0,0,0-4.42.68l.6.32a7.59,7.59,0,0,1,3.7,3.93C25.61,29,25.94,29.49,26.81,29.54Zm2.31,2.83a3.36,3.36,0,0,0,.46-.19,6.31,6.31,0,0,0,3.07-4.74.6.6,0,0,0-.06-.38,10.06,10.06,0,0,0-3.67-2.82c.11.35.19.56.25.78a7.37,7.37,0,0,1-.22,5.5A1.6,1.6,0,0,0,29.12,32.37Zm-8.74-.82c-1.79-1-4.65-.15-6,1a.61.61,0,0,0-.16.28,8.82,8.82,0,0,0,.64,4.47l0,0c.11-.2.21-.41.32-.6A7.47,7.47,0,0,1,19.07,33C19.84,32.73,20.3,32.36,20.38,31.55ZM26,38.34a8.74,8.74,0,0,0,.48.88A6.85,6.85,0,0,0,30,41.65,1.69,1.69,0,0,0,32,41.12a10.83,10.83,0,0,0,2-3l-.83.24A7.31,7.31,0,0,1,28,38.2,1.57,1.57,0,0,0,26,38.34ZM24.55,36a2.27,2.27,0,1,0-2.28-2.28A2.27,2.27,0,0,0,24.55,36Z"/></g></svg>