<svg id="Capa_1" data-name="Capa 1" xmlns="http://www.w3.org/2000/svg" viewBox="0 0 70 70"><defs><style>.cls-1{fill:#fff;}</style></defs><rect width="70" height="70"/><path class="cls-1" d="M9.84,25.18A7.74,7.74,0,0,0,17.38,19a.72.72,0,0,1,.55-.38q16,0,31.94,0c.37,0,.52.09.62.5A7.54,7.54,0,0,0,56.36,25c.43.1.54.25.54.66q0,9.36,0,18.73c0,.43-.15.54-.56.64a7.54,7.54,0,0,0-5.84,5.85c-.11.42-.23.55-.65.55H18c-.42,0-.55-.12-.65-.55a7.37,7.37,0,0,0-4.68-5.47,22.17,22.17,0,0,0-2.81-.71V44c0-2.23,0-4.47,0-6.7,0-.76-.4-1.22-1.06-1.23s-1.12.44-1.12,1.25q0,4.26,0,8.54c0,.92.54,1.35,1.46,1.24a5.63,5.63,0,0,1,1.36,0,5.4,5.4,0,0,1,4.83,5.31c.06.83.42,1.19,1.26,1.19H51.23c.88,0,1.23-.34,1.29-1.23A5.51,5.51,0,0,1,57.88,47c.84-.06,1.2-.42,1.2-1.24V24.18A1.07,1.07,0,0,0,57.93,23a5.49,5.49,0,0,1-5.41-5.42,1.07,1.07,0,0,0-1.23-1.14H16.55c-.83,0-1.2.36-1.24,1.2A5.43,5.43,0,0,1,9,22.87a1.09,1.09,0,0,0-1.37,1.18c0,2.9,0,5.79,0,8.69a1.09,1.09,0,1,0,2.18,0c0-2.26,0-4.51,0-6.77Zm55.8,19.66v.81c0,2.8,0,5.61,0,8.41,0,2.65-1.25,3.91-3.88,3.91H25.39c-.88,0-1.33.39-1.32,1.12s.47,1.06,1.3,1.06H62.5a5.42,5.42,0,0,0,5.33-5.32c0-3.63,0-7.25,0-10.87,0-.94-.37-1.3-1.34-1.31h-3V40.46h3c.81,0,1.28-.4,1.28-1.08s-.46-1.1-1.27-1.1H63.5V36.09h3c.81,0,1.28-.41,1.28-1.09s-.46-1.09-1.27-1.1H63.5V31.71h3c.81,0,1.28-.4,1.28-1.09s-.46-1.09-1.27-1.09c-1,0-2,0-3.06,0V27.39a.62.62,0,0,1,.18-.05h2.73c1.09,0,1.42-.34,1.42-1.43V15.45a5.42,5.42,0,0,0-5.59-5.61H48.43c-.85,0-1.69,0-2.53,0a1,1,0,0,0-1,1.05,1.06,1.06,0,0,0,1,1.13H62a3.36,3.36,0,0,1,3.68,3.69c0,2.92,0,5.83,0,8.75,0,.22,0,.44,0,.69H62.48a1.07,1.07,0,0,0-1.21,1.22V43.6c0,.85.39,1.23,1.26,1.24ZM4.37,35V15.87C4.37,13.29,5.65,12,8.24,12h33c.94,0,1.41-.38,1.41-1.1s-.47-1.09-1.36-1.09H7.6a5.41,5.41,0,0,0-5.41,5.37q0,19.8,0,39.59a5.43,5.43,0,0,0,5.37,5.35H20.62c.82,0,1.3-.46,1.26-1.17s-.5-1-1.29-1H8.21c-2.54,0-3.84-1.29-3.84-3.81ZM41.57,35q0,3.18,0,6.35c0,1,.36,1.34,1.3,1.34H46a4.33,4.33,0,0,0,4.3-4.31q0-3.35,0-6.7a4.33,4.33,0,0,0-4.3-4.3c-1.05,0-2.09,0-3.14,0s-1.3.37-1.3,1.33C41.57,30.77,41.57,32.86,41.57,35ZM24.09,27.34a4.39,4.39,0,0,0-4.41,4.21A4.43,4.43,0,0,0,24,36.1a2.16,2.16,0,0,1,2.16,2.56A2.23,2.23,0,0,1,24,40.46a2.26,2.26,0,0,1-2.13-2.11c-.09-.82-.51-1.22-1.2-1.16s-1,.52-1,1.3a4.14,4.14,0,0,0,2.47,3.73,4.14,4.14,0,0,0,4.67-.56,4.11,4.11,0,0,0,1.51-4.27,4.28,4.28,0,0,0-4.22-3.49,2.19,2.19,0,1,1,0-4.37,2.23,2.23,0,0,1,2.09,2.14c.1.78.5,1.17,1.17,1.13s1-.5,1-1.27A4.34,4.34,0,0,0,24.09,27.34ZM35,42.65a4.38,4.38,0,0,0,.12-8.75,2.19,2.19,0,1,1,0-4.37,2.23,2.23,0,0,1,2.09,2.14c.1.78.5,1.17,1.17,1.13s1-.5,1-1.27a4.35,4.35,0,0,0-4.14-4.19A4.39,4.39,0,1,0,35,36.11a2.14,2.14,0,0,1,2.16,2.55A2.23,2.23,0,0,1,35,40.46a2.26,2.26,0,0,1-2.13-2.11c-.09-.82-.51-1.22-1.2-1.16s-1,.51-1,1.3A4.35,4.35,0,0,0,35,42.65ZM9.84,14.21a3.28,3.28,0,1,0,3.28,3.28A3.25,3.25,0,0,0,9.84,14.21Zm48.14,0a3.28,3.28,0,1,0,3.29,3.21A3.26,3.26,0,0,0,58,14.21ZM6.56,52.47a3.28,3.28,0,1,0,3.31-3.25A3.26,3.26,0,0,0,6.56,52.47Zm48.14,0a3.27,3.27,0,0,0,3.21,3.3,1.1,1.1,0,0,0,.2-2.19,2,2,0,0,1-.59-.14,1,1,0,0,1-.6-1.12,1.07,1.07,0,0,1,1-.91c.59-.08,1.05.38,1.18,1.15a1.08,1.08,0,0,0,1.21,1,1.09,1.09,0,0,0,1-1.18,3.29,3.29,0,0,0-6.57.07Z"/><path class="cls-1" d="M9.84,25.18V26c0,2.26,0,4.51,0,6.77a1.09,1.09,0,1,1-2.18,0c0-2.9,0-5.79,0-8.69A1.09,1.09,0,0,1,9,22.87a5.43,5.43,0,0,0,6.28-5.27c0-.84.41-1.2,1.24-1.2H51.29a1.07,1.07,0,0,1,1.23,1.14A5.49,5.49,0,0,0,57.93,23a1.07,1.07,0,0,1,1.15,1.22V45.79c0,.82-.36,1.18-1.2,1.24a5.51,5.51,0,0,0-5.36,5.33c-.06.89-.41,1.23-1.29,1.23H16.57c-.84,0-1.2-.36-1.26-1.19a5.4,5.4,0,0,0-4.83-5.31,5.63,5.63,0,0,0-1.36,0c-.92.11-1.46-.32-1.46-1.24q0-4.27,0-8.54c0-.81.42-1.26,1.12-1.25s1.06.47,1.06,1.23c0,2.23,0,4.47,0,6.7v.66a22.17,22.17,0,0,1,2.81.71,7.37,7.37,0,0,1,4.68,5.47c.1.43.23.55.65.55H49.85c.42,0,.54-.13.65-.55A7.54,7.54,0,0,1,56.34,45c.41-.1.56-.21.56-.64q0-9.36,0-18.73c0-.41-.11-.56-.54-.66a7.54,7.54,0,0,1-5.87-5.9c-.1-.41-.25-.5-.62-.5q-16,0-31.94,0a.72.72,0,0,0-.55.38A7.74,7.74,0,0,1,9.84,25.18Z"/><path class="cls-1" d="M65.64,44.84H62.53c-.87,0-1.26-.39-1.26-1.24V26.37a1.07,1.07,0,0,1,1.21-1.22h3.13c0-.25,0-.47,0-.69,0-2.92,0-5.83,0-8.75A3.36,3.36,0,0,0,62,12H45.89a1.06,1.06,0,0,1-1-1.13,1,1,0,0,1,1-1.05c.84,0,1.68,0,2.53,0H62.24a5.42,5.42,0,0,1,5.59,5.61V25.91c0,1.09-.33,1.42-1.42,1.43H63.68a.62.62,0,0,0-.18.05v2.14c1,0,2,0,3.06,0,.81,0,1.27.41,1.27,1.09s-.47,1.09-1.28,1.09h-3V33.9h3.06c.81,0,1.27.41,1.27,1.1s-.47,1.08-1.28,1.09h-3v2.19h3.06c.81,0,1.27.41,1.27,1.1s-.47,1.08-1.28,1.08h-3v2.19h3c1,0,1.34.37,1.34,1.31,0,3.62,0,7.24,0,10.87a5.42,5.42,0,0,1-5.33,5.32H25.37c-.83,0-1.29-.38-1.3-1.06S24.51,58,25.39,58H61.76c2.63,0,3.88-1.26,3.88-3.91,0-2.8,0-5.61,0-8.41Z"/><path class="cls-1" d="M4.37,35V54.16c0,2.52,1.3,3.81,3.84,3.81H20.59c.79,0,1.24.36,1.29,1s-.44,1.17-1.26,1.17H7.56A5.43,5.43,0,0,1,2.19,54.8q0-19.8,0-39.59A5.41,5.41,0,0,1,7.6,9.84H41.31c.89,0,1.35.38,1.36,1.09S42.2,12,41.26,12h-33c-2.59,0-3.87,1.27-3.87,3.85Z"/><path class="cls-1" d="M41.57,35c0-2.1,0-4.19,0-6.29,0-1,.36-1.33,1.3-1.33s2.09,0,3.14,0a4.33,4.33,0,0,1,4.3,4.3q0,3.36,0,6.7A4.33,4.33,0,0,1,46,42.65H42.88c-.94,0-1.3-.38-1.3-1.34Q41.57,38.15,41.57,35Zm2.22,5.5h1.87a3.85,3.85,0,0,0,.48,0,2.2,2.2,0,0,0,2-2.23c0-2.16,0-4.32,0-6.48a2.14,2.14,0,0,0-2-2.18,23.74,23.74,0,0,0-2.39,0Z"/><path class="cls-1" d="M24.09,27.34a4.34,4.34,0,0,1,4.35,4.19c0,.77-.37,1.24-1,1.27s-1.07-.35-1.17-1.13a2.23,2.23,0,0,0-2.09-2.14,2.19,2.19,0,1,0,0,4.37,4.28,4.28,0,0,1,4.22,3.49,4.11,4.11,0,0,1-1.51,4.27,4.14,4.14,0,0,1-4.67.56,4.14,4.14,0,0,1-2.47-3.73c0-.78.34-1.25,1-1.3s1.11.34,1.2,1.16A2.26,2.26,0,0,0,24,40.46a2.23,2.23,0,0,0,2.19-1.8A2.16,2.16,0,0,0,24,36.1a4.43,4.43,0,0,1-4.36-4.55A4.39,4.39,0,0,1,24.09,27.34Z"/><path class="cls-1" d="M35,42.65a4.35,4.35,0,0,1-4.39-4.16c0-.79.35-1.25,1-1.3s1.11.34,1.2,1.16A2.26,2.26,0,0,0,35,40.46a2.23,2.23,0,0,0,2.19-1.8A2.14,2.14,0,0,0,35,36.11a4.39,4.39,0,1,1,.26-8.77,4.35,4.35,0,0,1,4.14,4.19c0,.77-.37,1.24-1,1.27s-1.07-.35-1.17-1.13a2.23,2.23,0,0,0-2.09-2.14,2.19,2.19,0,1,0,0,4.37A4.38,4.38,0,0,1,35,42.65Z"/><path class="cls-1" d="M9.84,14.21A3.28,3.28,0,1,1,6.56,17.5,3.25,3.25,0,0,1,9.84,14.21Zm1.09,3.25A1.15,1.15,0,0,0,9.8,16.4a1.09,1.09,0,0,0,.06,2.18A1.15,1.15,0,0,0,10.93,17.46Z"/><path class="cls-1" d="M58,14.21a3.28,3.28,0,1,1-3.28,3.28A3.26,3.26,0,0,1,58,14.21Zm1.09,3.28A1.09,1.09,0,1,0,58,18.58,1.15,1.15,0,0,0,59.07,17.49Z"/><path class="cls-1" d="M6.56,52.47a3.28,3.28,0,1,1,3.18,3.31A3.25,3.25,0,0,1,6.56,52.47Zm4.37,0A1.15,1.15,0,0,0,9.8,51.41a1.09,1.09,0,0,0,.06,2.17A1.13,1.13,0,0,0,10.93,52.47Z"/><path class="cls-1" d="M54.7,52.48a3.29,3.29,0,0,1,6.57-.07,1.09,1.09,0,0,1-1,1.18,1.08,1.08,0,0,1-1.21-1c-.13-.77-.59-1.23-1.18-1.15a1.07,1.07,0,0,0-1,.91,1,1,0,0,0,.6,1.12,2,2,0,0,0,.59.14,1.1,1.1,0,0,1-.2,2.19A3.27,3.27,0,0,1,54.7,52.48Z"/><path d="M43.79,40.46V29.54a23.74,23.74,0,0,1,2.39,0,2.14,2.14,0,0,1,2,2.18c0,2.16,0,4.32,0,6.48a2.2,2.2,0,0,1-2,2.23,3.85,3.85,0,0,1-.48,0Z"/><path d="M10.93,17.46a1.15,1.15,0,0,1-1.07,1.12A1.09,1.09,0,0,1,9.8,16.4,1.15,1.15,0,0,1,10.93,17.46Z"/><path d="M59.07,17.49A1.09,1.09,0,1,1,58,16.4,1.16,1.16,0,0,1,59.07,17.49Z"/><path d="M10.93,52.47a1.13,1.13,0,0,1-1.07,1.11,1.09,1.09,0,0,1-.06-2.17A1.15,1.15,0,0,1,10.93,52.47Z"/></svg>