<svg xmlns="http://www.w3.org/2000/svg" viewBox="0 0 70 70.07"><defs><style>.cls-1{fill:#fff;}</style></defs><g id="Fondo"><rect y="0.07" width="70" height="70"/></g><g id="Capa_4" data-name="Capa 4"><path class="cls-1" d="M65.17,22c-3,.09-6,0-9,0-.25,0-.5,0-.75,0a1,1,0,0,0-.93,1,1,1,0,0,0,.89,1,3.11,3.11,0,0,0,.68,0h9.64c1.63,0,2.27.63,2.27,2.25V53.54c0,1.69-.61,2.3-2.29,2.3H4.34c-1.68,0-2.29-.61-2.29-2.3V26.41c0-1.72.61-2.33,2.33-2.33H49.23c.2,0,.41,0,.61,0,.75,0,1.19-.43,1.19-1s-.4-1-1.17-1.06h-9.5c-.27,0-.53,0-.84,0,0-.84,0-1.62,0-2.39a2.11,2.11,0,0,0-2.18-2.14c-.45,0-.9,0-1.4,0,0-.6,0-1.12,0-1.64a2.9,2.9,0,0,1,3-3c.64,0,1.28,0,1.91,0a4.86,4.86,0,0,0,4.66-4.28,23.39,23.39,0,0,0,.09-3.55A4.94,4.94,0,0,0,42.71.46,7.66,7.66,0,0,0,39.29,0,4.59,4.59,0,0,1,38.53,0L38,0a6.76,6.76,0,0,1-3.16-.07,4.69,4.69,0,0,0,2.82,2,12.83,12.83,0,0,0,2.78.19,2.91,2.91,0,0,1,3.07,3q.06,1.5,0,3a2.66,2.66,0,0,1-2.28,2.53,22.18,22.18,0,0,1-2.58.13,4.9,4.9,0,0,0-4.73,4.43c-.07.74-.1,1.48-.15,2.26-.25,0-.46,0-.66,0a2.33,2.33,0,0,0-2.7,2.7c0,.6,0,1.21,0,1.88h-26a4.88,4.88,0,0,0-2.56.57A4.47,4.47,0,0,0,0,25.05V55a4.31,4.31,0,0,0,2.09,2.53c.47.2,1,.32,1.46.48h62.9a4.17,4.17,0,0,0,2.83-1.66c.28-.43.48-.9.72-1.35V25.05C69.24,22.69,67.55,21.88,65.17,22ZM32.55,19.48h4.87v2.44H32.55Z" transform="translate(0 0.07)"/><path class="cls-1" d="M16.23,48.57v3.34H53.74V48.57H24.61c-1.11,0-1.61-.32-1.62-1s.51-1,1.6-1H53.71c1.58,0,2.19.61,2.2,2.17,0,1.12,0,2.23,0,3.35a1.77,1.77,0,0,1-2,2H16.07a1.77,1.77,0,0,1-2-2c0-1.19,0-2.37,0-3.56a1.76,1.76,0,0,1,2-2c.8,0,1.59,0,2.39,0a1,1,0,0,1,1.12,1,1,1,0,0,1-1.13,1Z" transform="translate(0 0.07)"/><path class="cls-1" d="M10.32,36.67h4a1.69,1.69,0,0,1,1.9,1.83c0,1.27,0,2.55,0,3.82a1.73,1.73,0,0,1-2,1.86H6.37c-1.12,0-1.82-.49-1.89-1.54a35.41,35.41,0,0,1,0-4.49,1.51,1.51,0,0,1,1.72-1.47C7.58,36.66,9,36.67,10.32,36.67ZM6.57,42.05H14V38.78H6.57Z" transform="translate(0 0.07)"/><path class="cls-1" d="M59.68,36.67h4a1.59,1.59,0,0,1,1.83,1.59,34.27,34.27,0,0,1,0,4.3,1.63,1.63,0,0,1-1.83,1.61c-2.69,0-5.38,0-8.06,0a1.66,1.66,0,0,1-1.82-1.71c0-1.37,0-2.73,0-4.1a1.65,1.65,0,0,1,1.88-1.7ZM56,38.75v3.3h7.45v-3.3Z" transform="translate(0 0.07)"/><path class="cls-1" d="M8.37,26.83c.73,0,1.46,0,2.18,0a1.65,1.65,0,0,1,1.74,1.71c0,1.34,0,2.69,0,4a1.7,1.7,0,0,1-1.78,1.76c-1.44,0-2.87,0-4.31,0a1.57,1.57,0,0,1-1.73-1.56,35.58,35.58,0,0,1,0-4.5,1.5,1.5,0,0,1,1.67-1.44C6.91,26.81,7.64,26.83,8.37,26.83ZM6.56,32.2h3.65V28.92H6.56Z" transform="translate(0 0.07)"/><path class="cls-1" d="M17.23,26.83c.73,0,1.45,0,2.18,0a1.65,1.65,0,0,1,1.76,1.69c0,1.37,0,2.74,0,4.1a1.67,1.67,0,0,1-1.76,1.71c-1.43,0-2.87,0-4.3,0a1.74,1.74,0,0,1-1.82-1.88c0-1.25,0-2.5,0-3.76a1.74,1.74,0,0,1,2-1.86Zm-1.76,2.08v3.3h3.61v-3.3Z" transform="translate(0 0.07)"/><path class="cls-1" d="M26.11,26.83h2.12a1.69,1.69,0,0,1,1.83,1.76c0,1.31,0,2.63,0,3.95a1.7,1.7,0,0,1-1.82,1.79c-1.41,0-2.82,0-4.22,0a1.72,1.72,0,0,1-1.84-1.84c0-1.27,0-2.55,0-3.82a1.72,1.72,0,0,1,1.9-1.84Zm1.83,5.38V28.93H24.32v3.28Z" transform="translate(0 0.07)"/><path class="cls-1" d="M44,26.83h2a1.7,1.7,0,0,1,1.89,1.77q.07,2,0,4a1.72,1.72,0,0,1-1.9,1.77c-1.37,0-2.73,0-4.09,0a1.76,1.76,0,0,1-1.9-1.92q0-1.84,0-3.69a1.73,1.73,0,0,1,1.91-1.89Zm-1.9,5.38h3.62V28.93H42.05Z" transform="translate(0 0.07)"/><path class="cls-1" d="M52.78,26.83h2a1.71,1.71,0,0,1,1.94,1.8q.07,1.95,0,3.9a1.72,1.72,0,0,1-1.88,1.8q-2.05,0-4.11,0a1.74,1.74,0,0,1-1.89-1.92q0-1.84,0-3.69a1.71,1.71,0,0,1,1.91-1.89Zm-1.86,5.38h3.62V28.93H50.92Z" transform="translate(0 0.07)"/><path class="cls-1" d="M61.61,26.83h2c1.13,0,1.79.47,1.87,1.55a33.54,33.54,0,0,1,0,4.37,1.59,1.59,0,0,1-1.72,1.58c-1.46,0-2.92,0-4.37,0a1.68,1.68,0,0,1-1.74-1.8c0-1.29,0-2.59,0-3.89a1.68,1.68,0,0,1,1.79-1.8C60.2,26.81,60.91,26.83,61.61,26.83ZM59.8,28.91V32.2h3.61V28.91Z" transform="translate(0 0.07)"/><path class="cls-1" d="M48.7,36.67c.7,0,1.41,0,2.12,0a1.67,1.67,0,0,1,1.81,1.77c0,1.32,0,2.65,0,4a1.66,1.66,0,0,1-1.71,1.75q-2.22.06-4.44,0a1.52,1.52,0,0,1-1.65-1.48,40.8,40.8,0,0,1,0-4.56,1.51,1.51,0,0,1,1.67-1.45C47.24,36.66,48,36.67,48.7,36.67Zm-1.79,5.39h3.63v-3.3H46.91Z" transform="translate(0 0.07)"/><path class="cls-1" d="M21.34,36.67h2c1.14,0,1.82.51,1.88,1.62a35.23,35.23,0,0,1,0,4.36,1.55,1.55,0,0,1-1.7,1.52c-1.46,0-2.91,0-4.37,0a1.67,1.67,0,0,1-1.74-1.79c0-1.3,0-2.6,0-3.89a1.69,1.69,0,0,1,1.85-1.82Zm1.75,2.11H19.48v3.29h3.61Z" transform="translate(0 0.07)"/><path class="cls-1" d="M8.37,46.52c.7,0,1.41,0,2.11,0a1.69,1.69,0,0,1,1.82,1.79q0,2,0,4A1.67,1.67,0,0,1,10.59,54c-1.48,0-3,0-4.45,0A1.5,1.5,0,0,1,4.5,52.53a36.52,36.52,0,0,1,0-4.56,1.51,1.51,0,0,1,1.67-1.45C6.91,46.5,7.64,46.52,8.37,46.52ZM6.58,51.9h3.61V48.61H6.58Z" transform="translate(0 0.07)"/><path class="cls-1" d="M61.64,46.52c.68,0,1.36,0,2,0,1.1,0,1.78.5,1.84,1.58a34.46,34.46,0,0,1,0,4.43A1.51,1.51,0,0,1,63.86,54c-1.48,0-3,0-4.45,0a1.67,1.67,0,0,1-1.71-1.75c0-1.35,0-2.69,0-4a1.68,1.68,0,0,1,1.74-1.72h2.19Zm-1.86,5.39h3.63V48.63H59.78Z" transform="translate(0 0.07)"/><path class="cls-1" d="M35,26.83H37.1a1.68,1.68,0,0,1,1.84,1.75c0,1.31,0,2.63,0,4a1.71,1.71,0,0,1-1.81,1.8q-2.12,0-4.23,0a1.73,1.73,0,0,1-1.85-1.83c0-1.29,0-2.59,0-3.89a1.69,1.69,0,0,1,1.87-1.78Zm1.83,5.4v-3.3h-3.6v3.3Z" transform="translate(0 0.07)"/><path class="cls-1" d="M30.43,44.18c-.7,0-1.41,0-2.12,0a1.69,1.69,0,0,1-1.8-1.8c0-1.32,0-2.64,0-4a1.63,1.63,0,0,1,1.76-1.74c1.44,0,2.87,0,4.31,0a1.6,1.6,0,0,1,1.75,1.68c0,1.36,0,2.73,0,4.09a1.67,1.67,0,0,1-1.8,1.73C31.84,44.2,31.14,44.18,30.43,44.18Zm1.82-5.4H28.62v3.27h3.63Z" transform="translate(0 0.07)"/><path class="cls-1" d="M39.57,36.67c.73,0,1.46,0,2.19,0a1.63,1.63,0,0,1,1.72,1.71c0,1.35,0,2.69,0,4a1.64,1.64,0,0,1-1.7,1.75q-2.22.06-4.44,0a1.6,1.6,0,0,1-1.67-1.62c-.05-1.41-.06-2.83,0-4.23a1.59,1.59,0,0,1,1.78-1.64C38.16,36.66,38.87,36.67,39.57,36.67Zm-1.82,5.39h3.64V38.77H37.75Z" transform="translate(0 0.07)"/></g></svg>