<svg id="Capa_2" data-name="Capa 2" xmlns="http://www.w3.org/2000/svg" viewBox="0 0 258.7 258.7"><defs><style>.cls-1,.cls-3,.cls-4,.cls-8{fill:#2e80c3;}.cls-1,.cls-2{stroke:#2e80c3;}.cls-1,.cls-2,.cls-3,.cls-6,.cls-7{stroke-miterlimit:10;}.cls-1,.cls-2,.cls-7{stroke-width:5px;}.cls-2,.cls-6{fill:none;}.cls-3{stroke:#000;}.cls-5,.cls-7{fill:#1d1d1b;}.cls-6,.cls-7{stroke:#1d1d1b;}.cls-6{stroke-width:4px;}.cls-7{font-size:57.89px;font-family:ArialMT, Arial;}.cls-8{font-size:8px;font-family:Unispace-Bold, Unispace;font-weight:700;}</style></defs><rect class="cls-1" x="191.31" y="155.78" width="166.38" height="166.38" rx="14.64" transform="translate(-233.73 154.63) rotate(-45)"/><rect class="cls-2" x="180.52" y="144.83" width="187.97" height="187.97" rx="14.64" transform="translate(-233.62 154.59) rotate(-45)"/><path d="M250.59,163.84l-14.17,13.38h9.73l-2.43,3.87H227.48l1.33-4L243,163.69h-9.74l2.42-3.87h16.23Z" transform="translate(-145.15 -109.46)"/><path d="M270.31,159.82a2.58,2.58,0,0,1,2,.78,1.79,1.79,0,0,1,.34,1.88l-5.21,16a3.69,3.69,0,0,1-1.58,1.87,4.55,4.55,0,0,1-2.56.78H252.26a2.54,2.54,0,0,1-2-.79,1.75,1.75,0,0,1-.34-1.88l4.83-14.73h-2.84l2.43-3.87Zm-11.42,3.87,2,1.19-4,12.34h4.44l4.42-13.53Z" transform="translate(-145.15 -109.46)"/><path d="M292,159.82a2.65,2.65,0,0,1,2.06.78,1.78,1.78,0,0,1,.32,1.88l-5.44,16.64.93,2h-9.82l2.23-2,5.06-15.42h-6.79l2,1.17-4.68,14.25.94,2H269.1l2.25-2,5-15.42h-2.85l2.44-3.87Z" transform="translate(-145.15 -109.46)"/><path d="M311,179.12l.91,2h-9.81l2.22-2,1.23-3.73-4.64.77-1,3,.94,2h-9.71l2.22-2,5.06-15.42h-2.86l2.44-3.87h16a2.58,2.58,0,0,1,2,.78,1.75,1.75,0,0,1,.34,1.88Zm-1.56-15.43h-6.81l2,1.2-2.41,7.3,4.67-.77Z" transform="translate(-145.15 -109.46)"/><path d="M225.29,207.47a4.69,4.69,0,0,1-2.82,1h-10a3.83,3.83,0,0,1-1.8-.44,3.12,3.12,0,0,1-1.27-1.19,1.94,1.94,0,0,1-.19-1.65L214.11,188a.65.65,0,0,0-.62-.82h-1a.61.61,0,0,1-.54-.91l1.91-3.48a.61.61,0,0,1,.55-.33h15.4a2.46,2.46,0,0,1,2.1.94,2.26,2.26,0,0,1,.35,2.2l-1.43,5.05a.62.62,0,0,1-.47.44l-5.77,1.26a.63.63,0,0,1-.74-.79l1-3.58a.63.63,0,0,0-.61-.8h-2.63a.63.63,0,0,0-.6.46l-4.36,15.29a.62.62,0,0,0,.6.8h2.84s.53-1.06.61-1.33l.74-2.62c.12-.4-.6-.78-.6-.78h-.47a.63.63,0,0,1-.62-.66l.21-3.47a.63.63,0,0,1,.62-.6h8.67a.62.62,0,0,1,.6.8l-2.86,10A4.48,4.48,0,0,1,225.29,207.47Z" transform="translate(-145.15 -109.46)"/><path d="M249.28,206.25l.54,1.34a.63.63,0,0,1-.58.86H241.7a.64.64,0,0,1-.46-1.09l1.18-1.21a.57.57,0,0,0,.16-.27l1-3.4a.65.65,0,0,0-.74-.81l-3.54.67a.64.64,0,0,0-.49.46l-.87,3a.64.64,0,0,0,0,.43l.55,1.31a.65.65,0,0,1-.6.89H230a.64.64,0,0,1-.46-1.09l1.18-1.21a.57.57,0,0,0,.16-.27L236,188a.64.64,0,0,0-.61-.82h-1.1a.61.61,0,0,1-.54-.91l1.92-3.49a.62.62,0,0,1,.55-.32h16.23a2.59,2.59,0,0,1,2.17.95,2.39,2.39,0,0,1,.36,2.3l-5.75,20.14A.61.61,0,0,0,249.28,206.25ZM247.43,188a.63.63,0,0,0-.6-.81h-4.18a.63.63,0,0,0-.36,1.15l0,0a.65.65,0,0,1,.26.7l-2.1,7.25a.63.63,0,0,0,.72.79l3.46-.65a.66.66,0,0,0,.49-.45Z" transform="translate(-145.15 -109.46)"/><path d="M283.52,206.26l.55,1.32a.63.63,0,0,1-.58.87H276a.64.64,0,0,1-.46-1.09l1.19-1.21a.67.67,0,0,0,.16-.27L282,188a.65.65,0,0,0-.61-.83h-3.36a.64.64,0,0,0-.61.47l-5.21,18.17a.61.61,0,0,0,0,.42l.55,1.32a.65.65,0,0,1-.6.89h-7.88a.64.64,0,0,1-.46-1.09l1.19-1.21a.67.67,0,0,0,.16-.27L270.35,188a.65.65,0,0,0-.62-.83h-4.27a.64.64,0,0,0-.36,1.18h0a.65.65,0,0,1,.26.71l-4.79,16.75a.67.67,0,0,0,0,.42l.54,1.33a.64.64,0,0,1-.6.88h-7.87a.64.64,0,0,1-.46-1.09l1.19-1.21a.67.67,0,0,0,.16-.27l5.1-17.88a.64.64,0,0,0-.62-.82h-.88a.62.62,0,0,1-.55-.91l1.92-3.48a.61.61,0,0,1,.55-.33h27.63a2.62,2.62,0,0,1,2.19,1,2.41,2.41,0,0,1,.35,2.28l-5.75,20.13A.67.67,0,0,0,283.52,206.26Z" transform="translate(-145.15 -109.46)"/><path d="M309.49,191.11l-5.79,1.28a.63.63,0,0,1-.74-.79l1-3.61a.63.63,0,0,0-.6-.81h-2.75a.64.64,0,0,0-.61.46l-1.65,5.83a.62.62,0,0,0,.6.8h4.08a.63.63,0,0,1,.6.81l-1,3.47a.62.62,0,0,1-.6.45h-4.88a.62.62,0,0,0-.6.46l-.65,2.28a.62.62,0,0,0,.6.8h8.14s.78.83.55,1.24l-1.93,3.54c-.11.2-.56,1.13-.56,1.13h-11.2a3.89,3.89,0,0,1-1.8-.44,3.12,3.12,0,0,1-1.27-1.19,2.07,2.07,0,0,1-.19-1.64L293.19,188a.64.64,0,0,0-.61-.82h-1a.61.61,0,0,1-.54-.91l1.92-3.49a.62.62,0,0,1,.55-.32h15.45a2.51,2.51,0,0,1,2.11.92,2.35,2.35,0,0,1,.36,2.24l-1.44,5A.62.62,0,0,1,309.49,191.11Z" transform="translate(-145.15 -109.46)"/><path d="M327.68,208.45h-7.53a.64.64,0,0,1-.46-1.09l1.18-1.21a.57.57,0,0,0,.16-.27l1.29-4.5a.65.65,0,0,0-.74-.81l-3.54.67a.67.67,0,0,0-.5.46l-1.18,4.12a.67.67,0,0,0,0,.42l.54,1.33a.64.64,0,0,1-.59.88h-7.87a.64.64,0,0,1-.46-1.09l1.18-1.21a.57.57,0,0,0,.16-.27L314.45,188a.65.65,0,0,0-.62-.82h-1.07a.61.61,0,0,1-.54-.91l1.92-3.49a.62.62,0,0,1,.55-.32h16.22a2.63,2.63,0,0,1,2.18.95,2.53,2.53,0,0,1,.37,2.31l-2.38,8.3a.61.61,0,0,1-.15.26l-2.12,2.2a.62.62,0,0,0-.11.72l.82,1.62a.62.62,0,0,1,0,.46l-1.88,6.56a.67.67,0,0,0,0,.42l.56,1.32A.63.63,0,0,1,327.68,208.45ZM325.88,188a.63.63,0,0,0-.6-.81H321.1a.63.63,0,0,0-.35,1.16h0a.61.61,0,0,1,.25.69l-1.77,6.19a.63.63,0,0,0,.72.79l3.46-.66a.65.65,0,0,0,.49-.44Z" transform="translate(-145.15 -109.46)"/><rect class="cls-3" x="89.4" y="196.12" width="78.82" height="16.54" rx="6.89"/><rect class="cls-4" x="128.58" y="194.94" width="3.83" height="18.9"/><path class="cls-5" d="M236.92,286.68v13h4.53l-.79,3.54H235a7.15,7.15,0,0,0-1.17-.54,2.85,2.85,0,0,1-1-.71,11.18,11.18,0,0,1-.67-1V290.22h-1.57l.78-3.54Z" transform="translate(-145.15 -109.46)"/><path class="cls-5" d="M251.46,286.68c.58.52,1.07.71,1.49,1.09a2.8,2.8,0,0,1,.51,1.4v12.09a1.78,1.78,0,0,1-.65,1.38,2.28,2.28,0,0,1-1.57.58h-7.38a2.28,2.28,0,0,1-1.57-.58,1.78,1.78,0,0,1-.65-1.38v-11h-1.16l.77-3.54ZM245,290.22l1.37.8v8.66h2.36v-9.46Z" transform="translate(-145.15 -109.46)"/><path class="cls-5" d="M267.63,301.8l1,1.42h-6.43l.72-1.73v-2.74l-2.36.56v2.18l.86,1.73h-6.25l.66-1.73V290.22h-1.49l.77-2.36h10.48a2.06,2.06,0,0,1,1.45.56,1.81,1.81,0,0,1,.6,1.36Zm-4.72-11.58h-4.05l1.69.8v5.34l2.36-.57Z" transform="translate(-145.15 -109.46)"/><path class="cls-5" d="M281.28,302.37a5.64,5.64,0,0,1-1.49.85H269.58l-.78-3.54H270v-9.46h-1.2l.78-3.54h10.21c.57.51,1.08.7,1.49,1.08a3,3,0,0,1,.53,1.4V301A3,3,0,0,1,281.28,302.37Zm-4.19-12.15h-3.76l1.39.8v8.66h2.37Z" transform="translate(-145.15 -109.46)"/><path class="cls-5" d="M288.9,301.49l.83,1.73h-6.24l.69-1.73V290.22h-1.53l.78-2.36h5.47Z" transform="translate(-145.15 -109.46)"/><path class="cls-5" d="M300.67,286.68c.59.52,1.08.71,1.49,1.09a6.44,6.44,0,0,1,.92,1.4v12.32l.72,1.73h-6.25l.8-1.73V290.22h-4.13l1.77.8v10.47l.77,1.73h-6.23l.73-1.73V290.22H289.7l.77-3.54Z" transform="translate(-145.15 -109.46)"/><path class="cls-5" d="M316.59,302.63a2.37,2.37,0,0,1-1.61.59h-6.81a3.13,3.13,0,0,1-1.25-.27,3,3,0,0,1-1.05-.73,1.46,1.46,0,0,1-.43-1v-11h-1.67l.77-3.54h9.89c.58.51,1.07.7,1.49,1.09a10.29,10.29,0,0,0,1.34,1.39v3.39l-4.73,1v-3.31h-2.36v9.46h2.36v-2.37h-1.41l-.68-3.54h6.82v7.45A1.83,1.83,0,0,1,316.59,302.63Z" transform="translate(-145.15 -109.46)"/><rect class="cls-5" x="92.95" y="198.48" width="59.07" height="11.81" rx="3.93"/><rect class="cls-6" x="58.62" y="111.9" width="137.81" height="54.13" rx="15.9"/><rect class="cls-1" x="140.08" y="106.69" width="22.88" height="10.08"/><rect class="cls-1" x="92.54" y="160.99" width="25.42" height="10.08"/><polygon class="cls-6" points="150.46 103.87 141.19 103.87 136.56 111.9 141.19 119.93 150.46 119.93 155.1 111.9 150.46 103.87"/><polygon class="cls-6" points="114.23 158 104.97 158 100.33 166.03 104.97 174.06 114.23 174.06 118.87 166.03 114.23 158"/><text class="cls-7" transform="translate(70.72 158) scale(1.07 1)">+</text><circle class="cls-5" cx="185.18" cy="138.96" r="5.63"/><circle class="cls-5" cx="156.82" cy="138.96" r="5.63"/><circle class="cls-5" cx="171" cy="150.77" r="5.63"/><circle class="cls-5" cx="171" cy="129.5" r="5.63"/><text class="cls-8" transform="translate(103.42 207.09)">cargando</text></svg>